<?xml version="1.0" standalone="no"?>
<!DOCTYPE svg PUBLIC "-//W3C//DTD SVG 20010904//EN"
 "http://www.w3.org/TR/2001/REC-SVG-20010904/DTD/svg10.dtd">
<svg version="1.0" xmlns="http://www.w3.org/2000/svg"
 width="457.000000pt" height="457.000000pt" viewBox="0 0 457.000000 457.000000"
 preserveAspectRatio="xMidYMid meet">
<metadata>
Created by potrace 1.11, written by Peter Selinger 2001-2013
</metadata>
<g transform="translate(0.000000,457.000000) scale(0.100000,-0.100000)"
fill="#000000" stroke="none">
<path d="M2243 4548 c-21 -11 -50 -29 -65 -39 -14 -11 -30 -19 -35 -19 -5 0
-18 -8 -29 -18 -20 -19 -26 -22 -45 -22 -5 0 -7 -5 -4 -10 4 -6 3 -9 -2 -8
-13 4 -73 -23 -73 -33 0 -5 -5 -9 -11 -9 -6 0 -65 -32 -132 -72 -67 -39 -132
-76 -144 -82 -13 -6 -23 -15 -23 -19 0 -5 -4 -6 -9 -2 -5 3 -16 -2 -24 -10 -9
-8 -18 -15 -20 -15 -3 0 -51 -27 -107 -60 -56 -33 -103 -60 -105 -60 -1 0 -65
-37 -141 -81 -77 -45 -155 -91 -174 -102 -19 -11 -63 -36 -98 -56 -79 -45 -45
-26 -400 -230 l-302 -175 0 -1141 0 -1142 232 -134 c128 -74 242 -139 253
-145 11 -6 74 -42 140 -81 66 -38 140 -81 165 -95 25 -14 86 -49 135 -78 50
-29 108 -63 130 -75 105 -60 342 -196 355 -205 8 -5 40 -23 70 -39 30 -17 69
-39 85 -50 17 -12 36 -21 44 -21 8 0 19 -6 25 -14 6 -7 36 -26 66 -42 30 -16
57 -31 60 -34 3 -3 16 -11 30 -19 14 -8 48 -27 75 -43 28 -16 62 -34 78 -41
15 -6 27 -15 27 -19 0 -12 28 2 135 65 55 33 120 71 145 85 25 14 78 45 118
69 41 24 75 43 77 43 10 0 134 78 130 82 -3 3 1 5 8 5 7 0 46 19 87 44 79 46
126 73 200 114 25 14 61 35 80 46 19 12 231 134 470 271 239 138 452 261 472
274 21 13 42 24 47 24 5 0 12 8 15 18 2 9 4 526 4 1148 l0 1131 -102 58 c-55
32 -180 104 -276 160 -96 56 -195 113 -220 127 -25 14 -133 76 -240 138 -107
62 -251 145 -320 185 -69 39 -186 107 -260 150 -74 43 -231 133 -347 201
l-213 122 -37 -20z m139 -419 c56 -33 107 -61 112 -62 5 -1 18 -8 27 -16 10
-8 40 -27 66 -42 26 -14 104 -59 173 -99 69 -40 141 -81 160 -92 19 -11 107
-62 195 -113 88 -51 183 -105 210 -121 28 -15 110 -63 183 -106 73 -43 135
-78 138 -78 3 0 24 -13 47 -29 23 -16 45 -29 49 -30 10 -2 63 -32 102 -56 17
-11 43 -26 58 -34 l26 -14 0 -618 0 -619 -67 37 c-36 20 -70 40 -76 44 -5 4
-102 60 -215 124 -113 65 -262 151 -332 191 -69 41 -129 74 -131 74 -3 0 -34
17 -68 38 -35 22 -86 52 -114 67 -27 16 -68 39 -90 51 -22 13 -51 29 -65 37
-14 8 -128 73 -254 146 -125 72 -232 131 -236 131 -5 0 -10 3 -12 8 -1 4 -77
49 -168 101 -91 52 -167 96 -170 98 -7 6 38 39 85 63 22 11 58 30 80 44 22 13
67 39 100 59 l60 35 35 -18 c19 -10 39 -18 44 -18 5 0 12 -4 15 -9 5 -8 113
-73 198 -121 47 -26 122 -69 178 -102 86 -51 125 -71 125 -63 0 4 6 0 13 -9 6
-9 35 -28 62 -43 28 -15 79 -44 115 -65 35 -21 69 -36 75 -33 5 4 7 3 3 -2 -6
-6 411 -253 460 -272 9 -4 12 45 12 224 l0 230 -27 12 c-15 7 -95 52 -178 100
-82 49 -170 99 -195 113 -25 14 -143 82 -262 151 -120 69 -218 122 -218 119 0
-4 -4 -2 -8 4 -7 11 -108 74 -118 74 -3 0 -19 9 -35 21 -16 11 -29 17 -29 12
0 -4 -4 -3 -8 3 -9 13 -217 134 -231 134 -11 0 -67 -29 -116 -61 -16 -10 -37
-22 -45 -26 -16 -7 -983 -563 -988 -568 -1 -1 68 -43 155 -92 153 -88 400
-230 670 -386 72 -42 149 -86 170 -98 21 -12 81 -46 133 -77 52 -30 100 -55
107 -55 7 0 13 -4 13 -8 0 -4 12 -14 28 -22 15 -7 45 -24 67 -37 22 -13 61
-35 86 -49 25 -14 144 -83 265 -153 120 -70 223 -127 228 -127 5 1 12 -3 15
-8 6 -9 74 -51 178 -109 23 -13 108 -62 188 -109 81 -47 148 -85 150 -85 2 0
33 -18 69 -40 36 -22 70 -40 76 -40 5 0 10 -4 10 -10 0 -5 4 -10 9 -10 5 0 47
-22 93 -48 l83 -48 2 -89 c2 -53 -1 -93 -8 -101 -6 -8 -46 -33 -88 -56 -42
-23 -78 -44 -81 -47 -3 -3 -30 -19 -60 -35 -30 -16 -62 -35 -71 -42 -8 -8 -18
-14 -22 -14 -3 0 -77 -41 -164 -92 -87 -50 -176 -101 -198 -113 -22 -13 -85
-49 -140 -82 -55 -32 -107 -62 -115 -66 -8 -4 -24 -13 -35 -20 -11 -7 -51 -30
-90 -52 -38 -22 -78 -44 -87 -50 -214 -124 -477 -274 -490 -278 -10 -4 -18 -3
-18 1 0 9 -65 45 -76 42 -4 -1 -10 3 -13 8 -3 6 -35 27 -71 47 -36 21 -81 46
-100 57 -19 11 -47 29 -62 39 -14 11 -29 19 -32 19 -3 0 -51 27 -107 60 -55
33 -102 60 -104 60 -2 0 -49 27 -104 60 -56 33 -104 60 -107 60 -2 0 -17 8
-32 19 -50 34 -552 321 -562 321 -5 0 -10 5 -10 10 0 6 -4 10 -9 10 -5 0 -62
30 -125 67 l-116 68 0 607 c0 335 3 608 6 608 3 0 112 -61 242 -137 130 -75
253 -145 272 -156 19 -10 64 -36 100 -57 36 -21 81 -47 100 -57 74 -42 286
-163 300 -172 14 -9 257 -149 340 -196 307 -175 433 -247 470 -269 25 -14 71
-40 103 -57 31 -18 57 -35 57 -39 0 -3 -16 -15 -35 -26 -19 -10 -91 -52 -160
-91 -113 -66 -165 -87 -165 -65 0 4 -21 18 -47 32 -27 13 -64 34 -83 46 -19
11 -55 32 -80 46 -58 32 -360 205 -380 218 -44 27 -238 136 -253 142 -9 4 -23
12 -30 18 -10 9 -180 108 -365 211 l-52 30 2 -223 3 -223 210 -121 c116 -67
213 -120 218 -117 4 2 7 0 7 -5 0 -9 249 -156 295 -175 11 -4 22 -11 25 -15 8
-12 414 -242 424 -241 5 0 12 -3 15 -9 9 -13 96 -62 111 -62 7 0 59 26 114 59
56 32 117 68 136 79 99 55 166 96 171 105 3 5 9 7 12 5 4 -1 15 5 27 14 11 10
20 15 20 12 0 -4 12 1 26 10 14 10 132 78 262 153 130 74 240 139 243 145 3 5
9 9 13 8 4 0 29 11 57 27 57 30 56 33 -26 75 -22 11 -42 23 -45 27 -3 3 -19
13 -35 22 -55 28 -119 64 -129 72 -9 6 -175 101 -296 169 -19 11 -41 25 -47
30 -7 6 -13 7 -13 2 0 -5 -4 -4 -8 2 -12 17 -79 54 -85 47 -4 -3 -7 -1 -7 5 0
6 -13 18 -30 27 -16 9 -30 12 -30 8 0 -4 -6 0 -12 9 -7 8 -38 29 -68 45 -56
31 -790 454 -890 513 -31 18 -126 74 -155 90 -163 92 -797 458 -822 474 l-33
21 0 100 0 100 337 195 c186 107 347 200 358 206 37 20 70 39 75 44 3 3 19 12
35 21 100 53 441 253 443 261 2 4 7 6 12 3 4 -3 13 2 20 10 7 8 16 15 21 15 5
0 42 20 83 45 40 24 100 58 132 76 32 18 61 35 64 38 4 5 57 36 67 40 2 1 49
-26 105 -60z"/>
</g>
</svg>
