<?xml version="1.0" standalone="no"?>
<!DOCTYPE svg PUBLIC "-//W3C//DTD SVG 20010904//EN"
 "http://www.w3.org/TR/2001/REC-SVG-20010904/DTD/svg10.dtd">
<svg version="1.0" xmlns="http://www.w3.org/2000/svg"
 width="941.000000pt" height="941.000000pt" viewBox="0 0 941.000000 941.000000"
 preserveAspectRatio="xMidYMid meet">
<metadata>
Created by potrace 1.11, written by Peter Selinger 2001-2013
</metadata>
<g transform="translate(0.000000,941.000000) scale(0.100000,-0.100000)"
fill="#000000" stroke="none">
<path d="M4679 9395 c-13 -8 -31 -18 -39 -22 -8 -4 -48 -27 -89 -51 -40 -23
-162 -94 -270 -156 -108 -62 -241 -139 -296 -171 -55 -32 -116 -67 -135 -78
-19 -11 -48 -28 -65 -38 -16 -10 -41 -24 -55 -32 -14 -7 -115 -65 -225 -129
-110 -64 -216 -125 -235 -136 -19 -11 -89 -51 -155 -89 -66 -38 -212 -123
-325 -188 -113 -65 -259 -149 -325 -187 -66 -38 -129 -74 -140 -80 -11 -7
-211 -123 -445 -258 -234 -135 -611 -353 -837 -484 l-413 -238 0 -2353 0
-2354 162 -93 c89 -51 180 -104 202 -117 351 -202 769 -443 796 -460 19 -11
42 -24 50 -28 8 -4 55 -31 104 -60 49 -29 90 -53 91 -53 2 0 76 -43 166 -95
89 -52 163 -95 165 -95 1 0 75 -43 165 -95 89 -52 163 -95 165 -95 1 0 48 -27
103 -60 56 -33 106 -60 111 -60 6 0 10 -4 10 -10 0 -5 4 -10 10 -10 5 0 47
-22 92 -49 46 -27 99 -58 118 -68 19 -11 224 -129 455 -263 231 -133 438 -253
460 -265 22 -13 123 -71 225 -130 102 -59 210 -121 240 -138 30 -16 67 -38 82
-49 14 -10 29 -18 33 -18 4 0 20 -9 36 -21 l30 -21 79 46 c44 25 84 46 90 46
5 0 10 5 10 10 0 6 4 10 9 10 5 0 42 19 83 43 40 24 94 55 120 70 26 14 116
66 200 115 140 82 433 251 518 300 19 11 240 138 490 282 250 145 471 272 490
283 19 11 148 85 285 165 257 149 291 169 348 201 18 10 88 50 155 90 68 39
127 71 132 71 6 0 10 5 10 10 0 6 4 10 9 10 5 0 49 23 98 51 48 28 102 59 118
69 17 9 107 61 200 115 94 54 251 145 350 202 99 56 187 107 195 113 8 5 32
19 53 30 l37 20 0 2354 0 2354 -107 62 c-60 35 -121 70 -138 80 -16 9 -118 68
-225 130 -107 62 -211 122 -230 132 -19 11 -152 88 -295 171 -143 82 -273 158
-290 167 -40 23 -281 163 -325 189 -19 11 -53 30 -75 42 -22 12 -65 36 -95 54
-30 19 -201 118 -380 221 -179 103 -482 278 -675 389 -379 219 -789 455 -845
487 -19 11 -107 62 -195 113 -215 124 -197 116 -226 100z m217 -885 c75 -44
138 -80 141 -80 3 0 17 -8 31 -19 15 -10 47 -29 72 -43 62 -35 85 -48 335
-193 121 -70 234 -136 251 -146 18 -9 193 -111 390 -225 198 -114 384 -221
414 -237 30 -16 62 -36 71 -43 8 -8 18 -14 21 -14 3 0 57 -30 119 -66 63 -37
129 -75 148 -86 144 -82 1197 -691 1201 -695 8 -7 6 -2533 -2 -2533 -4 0 -47
23 -95 51 -48 28 -106 62 -128 74 -22 13 -159 92 -305 175 -146 84 -281 162
-300 172 -19 11 -64 37 -100 58 -36 21 -81 47 -100 57 -19 11 -206 118 -415
238 -586 337 -1025 589 -1075 617 -25 14 -70 40 -100 58 -30 18 -71 42 -90 52
-19 10 -42 23 -50 28 -15 10 -345 200 -425 244 -64 37 -580 333 -617 356 -18
11 -42 24 -53 30 -11 5 -42 23 -70 39 -27 17 -80 47 -118 68 -37 20 -66 41
-64 46 3 9 61 47 96 64 21 9 244 138 320 184 34 22 64 39 66 39 2 0 47 25 99
55 l96 56 98 -57 c53 -31 117 -68 142 -82 25 -14 131 -75 235 -135 105 -60
215 -123 245 -140 30 -16 71 -40 90 -52 19 -12 60 -35 90 -52 30 -16 280 -160
555 -318 275 -158 514 -296 531 -305 17 -10 188 -108 380 -218 192 -111 356
-203 364 -207 14 -5 16 47 15 470 l0 476 -90 48 c-49 26 -104 56 -122 67 -18
10 -78 46 -135 78 -57 33 -258 149 -448 259 -190 110 -491 284 -670 387 -179
103 -440 254 -580 335 -140 81 -271 157 -290 168 -19 10 -108 62 -198 114
l-164 95 -31 -17 c-18 -8 -39 -20 -47 -25 -26 -17 -214 -126 -230 -133 -8 -4
-28 -15 -45 -26 -16 -10 -131 -76 -255 -148 -124 -71 -400 -231 -615 -354
-214 -124 -397 -229 -405 -232 -8 -4 -35 -21 -60 -37 -25 -16 -55 -34 -67 -39
-12 -6 -39 -21 -60 -34 -21 -13 -63 -37 -93 -54 -30 -16 -120 -68 -200 -115
-80 -46 -171 -99 -203 -117 -32 -19 -55 -37 -50 -42 8 -8 384 -229 389 -229 1
0 107 -61 234 -135 128 -74 237 -132 243 -128 5 3 8 2 5 -3 -3 -5 201 -128
454 -274 253 -146 549 -316 657 -378 108 -63 221 -127 251 -144 30 -17 60 -34
65 -38 6 -4 30 -19 55 -32 25 -14 85 -48 133 -77 49 -28 93 -51 98 -51 5 0 9
-4 9 -10 0 -5 4 -10 9 -10 9 0 78 -39 516 -293 387 -224 642 -370 695 -400 30
-17 83 -48 118 -69 34 -21 64 -38 66 -38 3 0 37 -19 78 -43 40 -24 93 -55 118
-69 25 -14 144 -83 265 -153 121 -70 236 -136 255 -147 19 -11 51 -29 70 -40
19 -11 141 -81 270 -156 503 -289 685 -396 690 -403 7 -10 6 -376 0 -382 -7
-6 -151 -91 -170 -100 -8 -4 -22 -11 -30 -17 -25 -16 -202 -120 -205 -120 -3
0 -283 -160 -315 -180 -20 -12 -221 -128 -770 -445 -107 -62 -310 -179 -450
-260 -140 -81 -295 -170 -345 -198 -49 -28 -91 -55 -93 -59 -2 -5 -7 -8 -12
-8 -5 0 -35 -15 -67 -34 -303 -177 -920 -529 -928 -529 -9 0 -129 68 -475 268
-69 40 -141 82 -160 93 -19 11 -62 35 -95 54 -59 35 -230 133 -291 168 -18 10
-192 111 -389 225 -196 113 -371 214 -388 223 -18 10 -43 25 -57 34 -14 9 -44
26 -67 39 -24 13 -129 74 -235 135 -237 137 -627 362 -973 562 l-260 150 0
1251 c0 688 3 1251 6 1251 3 0 72 -38 153 -85 81 -47 151 -85 156 -85 5 0 10
-3 12 -7 2 -5 17 -15 33 -24 17 -9 64 -36 105 -60 41 -24 77 -44 80 -44 3 0
16 -8 30 -17 14 -9 99 -59 190 -111 91 -52 272 -155 402 -231 131 -75 252
-144 270 -155 163 -92 655 -375 663 -381 6 -4 35 -21 65 -37 30 -16 118 -67
194 -111 76 -45 140 -82 142 -82 2 0 27 -14 56 -31 29 -18 69 -41 88 -52 27
-15 488 -279 836 -478 465 -267 612 -355 606 -360 -4 -4 -86 -53 -182 -108
-96 -56 -182 -105 -190 -111 -8 -5 -33 -19 -54 -31 -22 -12 -84 -48 -140 -81
-113 -67 -117 -67 -202 -12 -30 18 -56 34 -58 34 -3 0 -37 19 -78 43 -40 24
-93 55 -118 69 -25 14 -182 104 -350 200 -168 97 -321 185 -340 195 -33 19
-402 231 -1045 601 -148 85 -283 163 -300 172 -16 9 -54 31 -83 49 -29 17 -54
31 -56 31 -2 0 -46 25 -97 55 -52 30 -96 55 -99 55 -4 0 -5 -890 -1 -912 0 -3
27 -21 59 -39 89 -50 91 -51 562 -324 245 -141 463 -267 485 -280 22 -12 96
-55 165 -95 69 -40 143 -83 165 -95 22 -12 78 -45 125 -72 47 -28 252 -146
455 -263 204 -117 438 -253 522 -302 83 -48 154 -88 158 -88 6 0 183 101 295
169 19 11 42 24 50 28 8 4 35 19 60 33 25 15 119 70 210 123 298 172 614 354
650 375 101 58 254 146 515 297 160 92 350 201 423 243 72 42 132 79 132 82 0
3 -21 17 -47 31 -27 15 -86 48 -132 75 -45 27 -107 63 -136 79 -29 17 -118 68
-198 114 -80 46 -148 83 -151 82 -3 -1 -14 6 -23 15 -10 8 -94 60 -188 113
-326 188 -1042 600 -1076 620 -19 11 -45 26 -59 34 -14 7 -88 50 -165 94 -77
44 -156 90 -175 100 -19 11 -132 76 -250 145 -118 69 -260 151 -315 182 -55
32 -107 62 -115 67 -13 8 -308 177 -925 532 -115 66 -243 140 -282 164 -40 23
-75 43 -78 43 -2 0 -37 20 -77 44 -70 43 -680 395 -763 441 -22 12 -112 63
-200 114 -88 51 -207 120 -265 153 l-105 61 0 210 0 209 65 38 c78 44 422 243
850 490 173 101 335 194 360 208 25 13 70 39 100 57 30 19 138 81 240 139 102
59 192 111 200 116 8 5 29 17 45 26 17 10 350 201 740 427 391 225 728 420
750 432 47 27 28 34 231 -85z"/>
</g>
</svg>
